<svg width="0" height="0" class="hidden">
    <symbol fill="inherit" xmlns="http://www.w3.org/2000/svg" viewBox="0 0 32 32" id="edit">
        <path fill="inherit" d="M12.8 13L11 19.2a1.5 1.5 0 001.8 1.8l6.2-1.8.7-.4L31 7.4a1.5 1.5 0 000-2.1L26.7.9c-.6-.5-1.5-.5-2.1 0L13.2 12.3l-.4.7zm2.8 1.2l10-10 2.4 2-10 10.1-3.3 1 1-3.2z"></path>
        <path fill="inherit" d="M30 14.5c-.8 0-1.5.7-1.5 1.5v10c0 1.4-1.1 2.5-2.5 2.5H6A2.5 2.5 0 013.5 26V6c0-1.4 1.1-2.5 2.5-2.5h10a1.5 1.5 0 000-3H6C3 .5.5 3 .5 6v20c0 3 2.5 5.5 5.5 5.5h20c3 0 5.5-2.5 5.5-5.5V16c0-.8-.7-1.5-1.5-1.5z"></path>
    </symbol>
    <symbol fill="inherit" xmlns="http://www.w3.org/2000/svg" viewBox="0 0 92 92" id="plus">
        <path fill="inherit" d="M72.5 46.5c0 2.5-2 4.5-4.5 4.5H50v17c0 2.5-2 4.5-4.5 4.5S41 70.5 41 68V51H24c-2.5 0-4.5-2-4.5-4.5s2-4.5 4.5-4.5h17V24c0-2.5 2-4.5 4.5-4.5s4.5 2 4.5 4.5v18h18c2.5 0 4.5 2 4.5 4.5z"></path>
    </symbol>
    <symbol fill="inherit" xmlns="http://www.w3.org/2000/svg" viewBox="0 0 29 29" id="trash">
        <path fill="inherit" d="M19.8 27H9.2a3 3 0 01-3-2.7L4.5 7.1a1 1 0 011-1.1h18a1 1 0 011 1.1l-1.7 17.2a3 3 0 01-3 2.7zM6.6 8l1.6 16.1a1 1 0 001 .9h10.6a1 1 0 001-.9L22.4 8H6.6z"></path>
        <path fill="inherit" d="M26 8H3a1 1 0 110-2h23a1 1 0 110 2zM14.5 23a1 1 0 01-1-1V11a1 1 0 112 0v11a1 1 0 01-1 1zM11 23a1 1 0 01-1-1L9 11a1 1 0 011-1 1 1 0 011 1l1 11a1 1 0 01-1 1zm7 0a1 1 0 01-1-1l1-11c0-.6.5-1 1-1a1 1 0 011 1l-1 11a1 1 0 01-1 1z"></path>
        <path fill="inherit" d="M19 8h-9a1 1 0 01-1-1V3a1 1 0 011-1h9a1 1 0 011 1v4a1 1 0 01-1 1zm-8-2h7V4h-7v2z"></path>
    </symbol>
    <symbol fill="inherit" xmlns="http://www.w3.org/2000/svg" viewBox="0 0 24 24" id="close">
        <path fill="inherit" d="M15.7 8.3a1 1 0 00-1.4 0L12 10.6 9.7 8.3a1 1 0 00-1.4 1.4l2.3 2.3-2.3 2.3a1 1 0 000 1.4 1 1 0 001.4 0l2.3-2.3 2.3 2.3a1 1 0 001.4 0 1 1 0 000-1.4L13.4 12l2.3-2.3a1 1 0 000-1.4zm3.4-3.4A10 10 0 104.9 19.1 10 10 0 1019.1 4.9zm-1.4 12.8A8 8 0 1120 12a8 8 0 01-2.3 5.7z"></path>
    </symbol>
</svg>