<svg xmlns="http://www.w3.org/2000/svg" version="1.1" id="Layer_1" x="0" y="0" viewBox="0 0 29 29" xml:space="preserve"><style></style><path d="M19.8 27H9.2a3 3 0 01-3-2.7L4.5 7.1a1 1 0 011-1.1h18a1 1 0 011 1.1l-1.7 17.2a3 3 0 01-3 2.7zM6.6 8l1.6 16.1a1 1 0 001 .9h10.6a1 1 0 001-.9L22.4 8H6.6z"/><path d="M26 8H3a1 1 0 110-2h23a1 1 0 110 2zM14.5 23a1 1 0 01-1-1V11a1 1 0 112 0v11a1 1 0 01-1 1zM11 23a1 1 0 01-1-1L9 11a1 1 0 011-1 1 1 0 011 1l1 11a1 1 0 01-1 1zM18 23a1 1 0 01-1-1l1-11c0-.6.5-1 1-1a1 1 0 011 1l-1 11a1 1 0 01-1 1z"/><path d="M19 8h-9a1 1 0 01-1-1V3a1 1 0 011-1h9a1 1 0 011 1v4a1 1 0 01-1 1zm-8-2h7V4h-7v2z"/></svg>